<svg width="1200" height="620" xmlns="http://www.w3.org/2000/svg" viewBox="0 0 1200 620">
  <defs>
    <linearGradient id="bg" x1="0%" y1="0%" x2="100%" y2="100%">
      <stop offset="0%" style="stop-color:#1a1612;stop-opacity:1" />
      <stop offset="100%" style="stop-color:#2a2420;stop-opacity:1" />
    </linearGradient>
    <linearGradient id="gold" x1="0%" y1="0%" x2="100%" y2="0%">
      <stop offset="0%" style="stop-color:#D4AF37;stop-opacity:1" />
      <stop offset="100%" style="stop-color:#FFD700;stop-opacity:1" />
    </linearGradient>
  </defs>
  
  <rect width="1200" height="620" fill="url(#bg)"/>
  
  <rect x="20" y="20" width="1160" height="580" fill="none" stroke="url(#gold)" stroke-width="3" opacity="0.5"/>
  <rect x="30" y="30" width="1140" height="560" fill="none" stroke="url(#gold)" stroke-width="1" opacity="0.3"/>
  
  <path d="M30 30 L80 30 L80 35 L35 35 L35 80 L30 80 Z" fill="#D4AF37"/>
  <path d="M1170 30 L1120 30 L1120 35 L1165 35 L1165 80 L1170 80 Z" fill="#D4AF37"/>
  <path d="M30 590 L80 590 L80 585 L35 585 L35 540 L30 540 Z" fill="#D4AF37"/>
  <path d="M1170 590 L1120 590 L1120 585 L1165 585 L1165 540 L1170 540 Z" fill="#D4AF37"/>
  
  <text x="600" y="260" font-family="Playfair Display, Georgia, serif" font-size="72" font-weight="bold" fill="#f0f0f0" text-anchor="middle">Minimalist</text>
  
  <line x1="400" y1="290" x2="800" y2="290" stroke="#D4AF37" stroke-width="2"/>
  <circle cx="400" cy="290" r="4" fill="#D4AF37"/>
  <circle cx="800" cy="290" r="4" fill="#D4AF37"/>
  
  <text x="600" y="340" font-family="Caveat, cursive" font-size="42" fill="#D4AF37" text-anchor="middle">Ancient Wisdom, Modern Stories</text>
  
  <text x="600" y="400" font-family="Lora, serif" font-size="20" fill="#888" text-anchor="middle">minimalist-blog.monkeycode-ai.online</text>
  
  <text x="100" y="100" font-size="60" fill="#D4AF37" opacity="0.2">✦</text>
  <text x="1100" y="520" font-size="60" fill="#D4AF37" opacity="0.2">✦</text>
</svg>
